<svg
  fill="none"
  height="21"
  viewBox="0 0 20 21"
  width="20"
  xmlns="http://www.w3.org/2000/svg"
>
  <path
    d="M16.875 6.74373C15.9789 5.89529 14.4532 5.37498 13.125 5.37498C11.9891 5.37234 10.8864 5.75828 10 6.46873C9.13213 5.77286 8.05613 5.38779 6.94378 5.37498C4.06253 5.33592 1.80159 7.74217 1.87503 10.6242C1.9064 11.8597 2.18252 13.0767 2.68742 14.2048C3.19231 15.3329 3.91595 16.3496 4.81644 17.1961C5.28029 17.6332 5.89391 17.8761 6.53128 17.875H13.3828C13.7231 17.8764 14.0601 17.8077 14.3727 17.6733C14.6853 17.5389 14.9669 17.3416 15.2 17.0937C16.4383 15.7656 16.875 14.5 16.875 14.5C15.5633 13.5992 15 12.0883 15 10.3765C15 8.94686 15.9125 7.65701 16.875 6.74529V6.74373Z"
    stroke="#131313"
    strokeLinecap="round"
    strokeLinejoin="round"
    strokeWidth="1.5"
  />
  <path
    d="M13.125 1.625H13.0469C12.4924 1.62472 11.9536 1.80877 11.5152 2.14819C11.0768 2.48761 10.7636 2.96315 10.625 3.5"
    stroke="#131313"
    strokeLinecap="round"
    strokeLinejoin="round"
    strokeWidth="1.5"
  />
</svg>
