<svg
  fill="none"
  height="24"
  viewBox="0 0 25 24"
  width="25"
  xmlns="http://www.w3.org/2000/svg"
>
  <path
    d="M6.85645 18.6909C7.42074 17.5794 8.28178 16.6459 9.34414 15.9938C10.4065 15.3418 11.6287 14.9966 12.8752 14.9966C14.1217 14.9966 15.3439 15.3418 16.4062 15.9938C17.4686 16.6459 18.3297 17.5794 18.8939 18.6909"
    stroke="currentColor"
    strokeLinecap="round"
    strokeLinejoin="round"
    strokeWidth="1.5"
  />
  <path
    d="M12.875 21C17.8456 21 21.875 16.9706 21.875 12C21.875 7.02944 17.8456 3 12.875 3C7.90444 3 3.875 7.02944 3.875 12C3.875 16.9706 7.90444 21 12.875 21Z"
    stroke="currentColor"
    strokeLinecap="round"
    strokeLinejoin="round"
    strokeWidth="1.5"
  />
  <path
    d="M12.875 15C14.9461 15 16.625 13.3211 16.625 11.25C16.625 9.17893 14.9461 7.5 12.875 7.5C10.8039 7.5 9.125 9.17893 9.125 11.25C9.125 13.3211 10.8039 15 12.875 15Z"
    stroke="currentColor"
    strokeLinecap="round"
    strokeLinejoin="round"
    strokeWidth="1.5"
  />
</svg>
