<svg
  width="32"
  height="32"
  viewBox="0 0 32 32"
  fill="none"
  xmlns="http://www.w3.org/2000/svg"
>
  <g id="XLogo">
    <path
      id="Vector"
      d="M26.844 26.4638L19.019 14.1663L26.7403 5.6725C26.9149 5.47565 27.0049 5.21791 26.9907 4.95515C26.9766 4.69239 26.8595 4.44579 26.6647 4.26882C26.47 4.09185 26.2134 3.99876 25.9504 4.00974C25.6875 4.02073 25.4395 4.1349 25.2603 4.3275L17.9053 12.4175L12.844 4.46375C12.7537 4.32169 12.6291 4.20471 12.4816 4.12365C12.3341 4.04258 12.1686 4.00005 12.0003 4H6.00025C5.82095 3.99991 5.64493 4.04803 5.49061 4.13932C5.33629 4.23062 5.20936 4.36172 5.1231 4.5189C5.03684 4.67609 4.99443 4.85357 5.0003 5.03278C5.00618 5.21198 5.06013 5.3863 5.1565 5.5375L12.9815 17.8337L5.26025 26.3337C5.17008 26.4306 5.10004 26.5444 5.05417 26.6685C5.00831 26.7927 4.98754 26.9247 4.99306 27.0569C4.99858 27.1891 5.03029 27.3189 5.08635 27.4388C5.14241 27.5586 5.22171 27.6662 5.31964 27.7552C5.41757 27.8442 5.53219 27.9129 5.65686 27.9572C5.78153 28.0016 5.91377 28.0208 6.04591 28.0137C6.17805 28.0066 6.30746 27.9733 6.42665 27.9158C6.54584 27.8583 6.65243 27.7777 6.74025 27.6787L14.0953 19.5888L19.1565 27.5425C19.2475 27.6834 19.3725 27.7991 19.5199 27.8791C19.6673 27.959 19.8325 28.0006 20.0003 28H26.0003C26.1794 27.9999 26.3552 27.9518 26.5093 27.8606C26.6634 27.7693 26.7902 27.6384 26.8764 27.4814C26.9627 27.3244 27.0051 27.1472 26.9994 26.9681C26.9937 26.7891 26.94 26.6149 26.844 26.4638ZM20.549 26L7.8215 6H11.4465L24.179 26H20.549Z"
      fill="#131313"
    />
  </g>
</svg>
